<svg
  xmlns="http://www.w3.org/2000/svg"
  width="24"
  height="24"
  viewBox="0 0 24 24"
  fill="none"
>
  <defs>
    <linearGradient id="folder-tree-gradient" x1="3" y1="3" x2="21" y2="21" gradientUnits="userSpaceOnUse">
      <stop offset="0%" stop-color="#0f766e" />
      <stop offset="32%" stop-color="#14b8a6" />
      <stop offset="68%" stop-color="#38bdf8" />
      <stop offset="100%" stop-color="#6366f1" />
    </linearGradient>
  </defs>
  <path
    d="M20 10a1 1 0 0 0 1-1V6a1 1 0 0 0-1-1h-2.5a1 1 0 0 1-.8-.4l-.9-1.2A1 1 0 0 0 15 3h-2a1 1 0 0 0-1 1v5a1 1 0 0 0 1 1Z"
    stroke="url(#folder-tree-gradient)"
    stroke-linecap="round"
    stroke-linejoin="round"
    stroke-width="2"
  />
  <path
    d="M20 21a1 1 0 0 0 1-1v-3a1 1 0 0 0-1-1h-2.9a1 1 0 0 1-.88-.55l-.42-.85a1 1 0 0 0-.92-.6H13a1 1 0 0 0-1 1v5a1 1 0 0 0 1 1Z"
    stroke="url(#folder-tree-gradient)"
    stroke-linecap="round"
    stroke-linejoin="round"
    stroke-width="2"
  />
  <path
    d="M3 5a2 2 0 0 0 2 2h3"
    stroke="url(#folder-tree-gradient)"
    stroke-linecap="round"
    stroke-linejoin="round"
    stroke-width="2"
  />
  <path
    d="M3 3v13a2 2 0 0 0 2 2h3"
    stroke="url(#folder-tree-gradient)"
    stroke-linecap="round"
    stroke-linejoin="round"
    stroke-width="2"
  />
</svg>
