<svg
  xmlns="http://www.w3.org/2000/svg"
  width="24"
  height="24"
  viewBox="0 0 24 24"
  fill="none"
>
  <defs>
    <linearGradient id="square-pen-gradient" x1="3" y1="3" x2="21" y2="21" gradientUnits="userSpaceOnUse">
      <stop offset="0%" stop-color="#0f766e" />
      <stop offset="32%" stop-color="#14b8a6" />
      <stop offset="68%" stop-color="#38bdf8" />
      <stop offset="100%" stop-color="#6366f1" />
    </linearGradient>
  </defs>
  <path
    d="M12 3H5a2 2 0 0 0-2 2v14a2 2 0 0 0 2 2h14a2 2 0 0 0 2-2v-7"
    stroke="url(#square-pen-gradient)"
    stroke-linecap="round"
    stroke-linejoin="round"
    stroke-width="2"
  />
  <path
    d="M18.375 2.625a1 1 0 0 1 3 3l-9.013 9.014a2 2 0 0 1-.853.505l-2.873.84a.5.5 0 0 1-.62-.62l.84-2.873a2 2 0 0 1 .506-.852z"
    stroke="url(#square-pen-gradient)"
    stroke-linecap="round"
    stroke-linejoin="round"
    stroke-width="2"
  />
</svg>
